<svg xmlns="http://www.w3.org/2000/svg" xmlns:xlink="http://www.w3.org/1999/xlink" viewBox="0 0 288 288"><defs><style>.cls-1,.cls-5{fill:none;}.cls-2{mask:url(#mask);}.cls-3{clip-path:url(#clip-path);}.cls-4{fill:#040911;}.cls-5{stroke:#f1e4b2;stroke-miterlimit:10;stroke-width:2.98px;}.cls-6{mask:url(#mask-2);}.cls-7{fill:#f1e4b2;}.cls-8{fill:#010101;}.cls-9{filter:url(#luminosity-noclip-2);}.cls-10{filter:url(#luminosity-noclip);}</style><filter id="luminosity-noclip" x="-83.47" y="-8336.11" width="454.94" height="32766" filterUnits="userSpaceOnUse" color-interpolation-filters="sRGB"><feFlood flood-color="#fff" result="bg"/><feBlend in="SourceGraphic" in2="bg"/></filter><mask id="mask" x="-83.47" y="-8336.11" width="454.94" height="32766" maskUnits="userSpaceOnUse"><g class="cls-10"/></mask><clipPath id="clip-path"><circle class="cls-1" cx="144" cy="144" r="144" transform="translate(-0.17 0.17) rotate(-0.07)"/></clipPath><filter id="luminosity-noclip-2" x="21.05" y="-8336.11" width="245.91" height="32766" filterUnits="userSpaceOnUse" color-interpolation-filters="sRGB"><feFlood flood-color="#fff" result="bg"/><feBlend in="SourceGraphic" in2="bg"/></filter><mask id="mask-2" x="21.05" y="-8336.11" width="245.91" height="32766" maskUnits="userSpaceOnUse"><g class="cls-9"/></mask></defs><title>Artboard 2</title><g id="Layer_1" data-name="Layer 1"><g class="cls-2"><g class="cls-3"><circle class="cls-4" cx="144" cy="144" r="144" transform="translate(-0.17 0.17) rotate(-0.07)"/><path class="cls-5" d="M220.91,144A76.91,76.91,0,1,1,144,67.09,76.91,76.91,0,0,1,220.91,144Z"/><path class="cls-5" d="M230.52,144A86.52,86.52,0,1,1,144,57.48,86.52,86.52,0,0,1,230.52,144Z"/><path class="cls-5" d="M240.13,144A96.13,96.13,0,1,1,144,47.87,96.13,96.13,0,0,1,240.13,144Z"/><path class="cls-5" d="M249.74,144A105.74,105.74,0,1,1,144,38.26,105.74,105.74,0,0,1,249.74,144Z"/><path class="cls-5" d="M259.35,144A115.35,115.35,0,1,1,144,28.65,115.35,115.35,0,0,1,259.35,144Z"/><path class="cls-5" d="M269,144A125,125,0,1,1,144,19,125,125,0,0,1,269,144Z"/><path class="cls-5" d="M278.57,144A134.57,134.57,0,1,1,144,9.43,134.58,134.58,0,0,1,278.57,144Z"/><rect class="cls-4" x="-83.47" y="73.22" width="454.94" height="141.57"/></g></g><g class="cls-6"><g class="cls-6"><rect class="cls-7" x="21.05" y="181.31" width="245.91" height="2.39"/><rect class="cls-7" x="21.05" y="186.51" width="245.91" height="4.79"/><rect class="cls-7" x="21.05" y="194.1" width="245.91" height="2.39"/></g><polygon class="cls-8" points="102.39 205.04 87.36 188.89 102.39 172.74 185.6 172.74 200.64 188.89 185.6 205.04 102.39 205.04"/><path class="cls-7" d="M172.62,182.55h-2v12.7h2c.8,0,1.25-.27,1.25-1.09V183.64C173.87,182.82,173.42,182.55,172.62,182.55Z"/><rect class="cls-7" x="127.9" y="182.55" width="3.23" height="12.7"/><path class="cls-7" d="M184.48,175.33h-81L90.88,188.9l12.63,13.57h81l12.64-13.57Zm-62.91,10H117v-3H114.1v2.93l6.64,4.54a1.83,1.83,0,0,1,.83,1.79v5a2.08,2.08,0,0,1-2.35,2.38h-7.33c-1.58,0-2.33-.78-2.33-2.38v-4.48h4.54v3.15H117v-3l-6.67-4.56a1.76,1.76,0,0,1-.78-1.76v-5a2.06,2.06,0,0,1,2.33-2.37h7.36c1.57,0,2.32.74,2.32,2.35Zm14.13,11.34c0,1.6-.75,2.38-2.33,2.38h-7.71c-1.57,0-2.29-.78-2.29-2.38V181.08c0-1.6.72-2.37,2.29-2.37h7.71a2.06,2.06,0,0,1,2.33,2.37Zm14.12,0a2.07,2.07,0,0,1-2.35,2.38h-7.66c-1.6,0-2.32-.78-2.32-2.38v-18H142v16.54h3.23V178.71h4.57Zm14.49,2.38h-4.48l-3.68-9.88v9.88h-4.54V178.71h4.46l3.71,9.6v-9.6h4.53Zm14.13-4c0,2.72-1.47,4-4.19,4h-8.14V178.71h8.14c2.72,0,4.19,1.36,4.19,4.08Z"/><path class="cls-7" d="M51.81,169.15l-2.34-14.78H34.9l-2.34,14.78H21.05v-.21L36.12,91.21H48.35l15,77.73v.21Zm-9.68-59.9-5.7,35.14H47.84Z"/><path class="cls-7" d="M85,101.6v67.55H73.41V101.6H60.67V91.32H97.86V101.6Z"/><path class="cls-7" d="M136.56,169.15H111.3c-4.48,0-6.93-2.55-6.93-7.14V98.45c0-4.59,2.45-7.13,6.93-7.13h25.26c4.49,0,7,2.54,7,7.13V162C143.59,166.6,141.05,169.15,136.56,169.15ZM132,101.3H116v57.86h16Z"/><path class="cls-7" d="M188.21,169.15V130.74c0-3,.71-8.46.71-8.46L178.84,162h-5.91l-10.08-39.73s.71,5.51.71,8.46v38.41H152.35V91.32h11l12.22,43a29.78,29.78,0,0,1,.3,3.56,30.23,30.23,0,0,1,.31-3.56l12.22-43h11v77.83Z"/><path class="cls-7" d="M208.28,169.15V91.32h11.61v77.83Z"/><path class="cls-7" d="M259.82,169.15H235.58c-4.49,0-6.93-2.55-6.93-7.14V98.45c0-4.59,2.44-7.13,6.93-7.13h24.24c4.59,0,7.13,2.54,7.13,7.13v18.23H255.34V101.3H240.26v57.86h15.08v-16.4H267V162C267,166.6,264.41,169.15,259.82,169.15Z"/></g></g></svg>