<svg xmlns="http://www.w3.org/2000/svg" viewBox="0 0 507 507"><defs><style>.cls-1{isolation:isolate;}.cls-2,.cls-5,.cls-6,.cls-7{fill:none;stroke-miterlimit:10;}.cls-2,.cls-5{stroke:#f1e4b2;}.cls-2{stroke-width:10px;}.cls-3{fill:#f1e4b2;}.cls-4{fill:#66a182;}.cls-5,.cls-6,.cls-7{stroke-linecap:round;stroke-width:20px;}.cls-6{stroke:#2d2c2d;opacity:0.5;mix-blend-mode:multiply;}.cls-7{stroke:#66a182;}</style></defs><title>atomisound_icons</title><g class="cls-1"><g id="Layer_1" data-name="Layer 1"><rect class="cls-2" x="15" y="15" width="477" height="477" rx="15" ry="15"/><path class="cls-3" d="M316.22,249.12h-144v21.32a81.24,81.24,0,1,0,162.48,0V249.12Z"/><path class="cls-4" d="M316.22,249.12h-144v21.32a81.24,81.24,0,1,0,162.48,0V249.12Z"/><line class="cls-5" x1="175.01" y1="444.5" x2="331.99" y2="444.5"/><line class="cls-6" x1="175.01" y1="444.5" x2="331.99" y2="444.5"/><line class="cls-5" x1="253.5" y1="439" x2="253.5" y2="385.93"/><line class="cls-6" x1="253.5" y1="439" x2="253.5" y2="385.93"/><rect class="cls-7" x="181.52" y="62.5" width="143.96" height="279.92" rx="71.55" ry="71.55"/><path class="cls-5" d="M150,297A105.93,105.93,0,0,0,357,297"/><path class="cls-6" d="M150,297A105.93,105.93,0,0,0,357,297"/></g></g></svg>