<?xml version="1.0" encoding="utf-8"?>
<!-- Generator: Adobe Illustrator 22.0.1, SVG Export Plug-In . SVG Version: 6.00 Build 0)  -->
<svg version="1.1" id="Layer_1" xmlns="http://www.w3.org/2000/svg" xmlns:xlink="http://www.w3.org/1999/xlink" x="0px" y="0px"
	 viewBox="0 0 79 80" style="enable-background:new 0 0 79 80;" xml:space="preserve">
<style type="text/css">
	.st0{fill:#040911;}
</style>
<title>LinkedIn</title>
<desc>Created with Sketch.</desc>
<g id="SOCIAL-ICONS-SKETCH" transform="translate(-655.000000, -828.000000)">
	<g id="CIRCLE-KO" transform="translate(140.000000, 827.000000)">
		<g id="LinkedIn" transform="translate(515.000000, 1.000000)">
			<path id="Linkedin-Cirlce" class="st0" d="M39.5,79.6c-21.8,0-39.5-17.7-39.5-39.5c0-21.8,17.7-39.5,39.5-39.5
				C61.3,0.6,79,18.3,79,40.1C79,61.9,61.3,79.6,39.5,79.6L39.5,79.6z M39.5,3.6C19.4,3.6,3.1,20,3.1,40.1
				c0,20.1,16.4,36.5,36.5,36.5C59.6,76.6,76,60.2,76,40.1C76,20,59.6,3.6,39.5,3.6L39.5,3.6z"/>
			<path id="Linkedin" class="st0" d="M22.7,34.4h7.2v22.8h-7.2V34.4z M49.5,34.1c5.1,0,9.1,3.3,9.1,10.3v12.7h-8.2V45.3
				c0-3.1-1.3-5.2-4.1-5.2c-2.1,0-3.3,1.4-3.9,2.8c-0.2,0.5-0.2,1.2-0.2,1.9v12.3h-8.1c0,0,0.1-20.9,0-22.8h8.1v3.6
				C42.8,36.4,45.4,34.1,49.5,34.1z M26.1,23.6c2.7,0,4.3,1.7,4.3,3.9c0,2.2-1.7,4-4.4,4H26c-2.6,0-4.3-1.7-4.3-3.9
				C21.7,25.3,23.5,23.6,26.1,23.6z"/>
		</g>
	</g>
</g>
</svg>
