<?xml version="1.0" encoding="utf-8"?>
<!-- Generator: Adobe Illustrator 22.0.1, SVG Export Plug-In . SVG Version: 6.00 Build 0)  -->
<svg version="1.1" id="Layer_1" xmlns="http://www.w3.org/2000/svg" xmlns:xlink="http://www.w3.org/1999/xlink" x="0px" y="0px"
	 viewBox="0 0 36 57" style="enable-background:new 0 0 36 57;" xml:space="preserve">
<style type="text/css">
	.st0{fill:#66A182;}
</style>
<title>Fill 1</title>
<desc>Created with Sketch.</desc>
<g id="Page-1_1_">
	<g id="Land" transform="translate(-509.000000, -421.000000)">
		<g id="Hero" transform="translate(0.000000, 61.000000)">
			<g id="Virtual-tour" transform="translate(465.000000, 360.000000)">
				<g id="Page-1" transform="translate(44.000000, 0.000000)">
					<path id="Fill-1" class="st0" d="M16.4,16.1c-1.7,0-3.2,1.5-3.2,3.4v5.6c0,1.8,1.4,3.4,3.2,3.4s3.2-1.5,3.2-3.4v-5.6
						C19.6,17.6,18.1,16.1,16.4,16.1L16.4,16.1z M16.4,13.6c7,0,12.6,5.5,12.6,12.4v14.9c0,6.9-5.6,12.4-12.6,12.4
						S3.8,47.8,3.8,40.9V26C3.8,19.1,9.4,13.6,16.4,13.6L16.4,13.6z M20.8,0c-3.5,0-6.3,2.8-6.3,6.2V10C6.4,10.9,0,17.8,0,26v14.9
						C0,49.8,7.4,57,16.4,57s16.4-7.2,16.4-16.1V26c0-8.3-6.4-15.1-14.5-16V6.2c0-1.4,1.1-2.5,2.5-2.5c1.5,0,2.5,0.9,2.5,2.5l0,1.2
						c0.1,3.4,2.9,6.1,6.3,6.1c3.5,0,6.3-2.8,6.3-6.2c0-1-0.8-1.9-1.9-1.9c-1,0-1.9,0.8-1.9,1.8c0,0,0,0,0,0.1
						c0,1.4-1.1,2.5-2.5,2.5c-1.5,0-2.5-0.9-2.5-2.5v0l0-1.2v0C27,2.7,24.2,0,20.8,0z"/>
				</g>
			</g>
		</g>
	</g>
</g>
</svg>
