<svg id="Layer_1" data-name="Layer 1" xmlns="http://www.w3.org/2000/svg" viewBox="0 0 507 507"><defs><style>.cls-1{fill:none;stroke:#f1e4b2;stroke-miterlimit:10;stroke-width:10px;}.cls-2{fill:#66a182;}.cls-3{fill:#f1e4b2;}.cls-4{fill:#2d2c2d;opacity:0.5;}</style></defs><title>atomisound_icons</title><rect class="cls-1" x="15" y="15" width="477" height="477" rx="15" ry="15"/><path class="cls-2" d="M359.93,266.11V196.27a10,10,0,0,0-20,0v69.84Z"/><path class="cls-2" d="M391.61,266.11V221a10,10,0,1,0-20,0v45.08Z"/><path class="cls-2" d="M328.24,266.11V204.52a10,10,0,1,0-20,0v61.59Z"/><path class="cls-2" d="M455,266.11V254a10,10,0,1,0-20,0v12.07Z"/><path class="cls-2" d="M296.56,266.11V155a10,10,0,0,0-20,0V266.11Z"/><path class="cls-2" d="M423.3,266.11V254a10,10,0,0,0-20,0v12.07Z"/><path class="cls-2" d="M105.53,266.11V212.77a10,10,0,0,0-20,0v53.34Z"/><path class="cls-2" d="M137.21,266.11v-94.6a10,10,0,0,0-20,0v94.6Z"/><path class="cls-2" d="M73.84,266.11V254a10,10,0,0,0-20,0v12.07Z"/><path class="cls-2" d="M168.91,266.11l.45-135.83a10,10,0,0,0-10-10h0a10,10,0,0,0-10,10l-.45,135.9Z"/><path class="cls-2" d="M201.05,266.11,201.5,89a10,10,0,0,0-10-10h0a10,10,0,0,0-10,10l-.45,177.15Z"/><path class="cls-2" d="M233.18,266.11V138.5a10,10,0,0,0-20,0V266.11Z"/><path class="cls-2" d="M264.87,266.11V122a10,10,0,0,0-20,0V266.11Z"/><path class="cls-3" d="M359.93,264.8v69.84a10,10,0,0,1-20,0V264.8Z"/><path class="cls-4" d="M359.93,264.8v69.84a10,10,0,0,1-20,0V264.8Z"/><path class="cls-3" d="M391.61,264.8v45.08a10,10,0,0,1-20,0V264.8Z"/><path class="cls-4" d="M391.61,264.8v45.08a10,10,0,0,1-20,0V264.8Z"/><path class="cls-3" d="M328.24,264.8v61.59a10,10,0,0,1-20,0V264.8Z"/><path class="cls-4" d="M328.24,264.8v61.59a10,10,0,0,1-20,0V264.8Z"/><path class="cls-3" d="M455,264.8v12.07a10,10,0,0,1-20,0V264.8Z"/><path class="cls-4" d="M455,264.8v12.07a10,10,0,0,1-20,0V264.8Z"/><path class="cls-3" d="M296.56,264.8V375.9a10,10,0,0,1-20,0V264.8Z"/><path class="cls-4" d="M296.56,264.8V375.9a10,10,0,0,1-20,0V264.8Z"/><path class="cls-3" d="M423.3,264.8v12.07a10,10,0,0,1-20,0V264.8Z"/><path class="cls-4" d="M423.3,264.8v12.07a10,10,0,0,1-20,0V264.8Z"/><path class="cls-3" d="M105.53,264.8v53.33a10,10,0,0,1-20,0V264.8Z"/><path class="cls-4" d="M105.53,264.8v53.33a10,10,0,0,1-20,0V264.8Z"/><path class="cls-3" d="M137.21,264.8v94.6a10,10,0,0,1-20,0V264.8Z"/><path class="cls-4" d="M137.21,264.8v94.6a10,10,0,0,1-20,0V264.8Z"/><path class="cls-3" d="M73.84,264.8v12.07a10,10,0,0,1-20,0V264.8Z"/><path class="cls-4" d="M73.84,264.8v12.07a10,10,0,0,1-20,0V264.8Z"/><path class="cls-3" d="M168.91,264.8l.45,135.83a10,10,0,0,1-10,10h0a10,10,0,0,1-10-10l-.45-135.89Z"/><path class="cls-4" d="M168.91,264.8l.45,135.83a10,10,0,0,1-10,10h0a10,10,0,0,1-10-10l-.45-135.89Z"/><path class="cls-3" d="M201.05,264.8l.45,177.1a10,10,0,0,1-10,10h0a10,10,0,0,1-10-10l-.45-177.15Z"/><path class="cls-4" d="M201.05,264.8l.45,177.1a10,10,0,0,1-10,10h0a10,10,0,0,1-10-10l-.45-177.15Z"/><path class="cls-3" d="M233.18,264.8V392.41a10,10,0,0,1-20,0V264.8Z"/><path class="cls-4" d="M233.18,264.8V392.41a10,10,0,0,1-20,0V264.8Z"/><path class="cls-3" d="M264.87,264.8V408.91a10,10,0,0,1-20,0V264.8Z"/><path class="cls-4" d="M264.87,264.8V408.91a10,10,0,0,1-20,0V264.8Z"/></svg>