<svg xmlns="http://www.w3.org/2000/svg" xmlns:xlink="http://www.w3.org/1999/xlink" viewBox="0 0 507 507"><defs><style>.cls-1,.cls-10,.cls-4,.cls-6{fill:none;}.cls-2{isolation:isolate;}.cls-3{fill:#f1e4b2;stroke:#f1e4b2;}.cls-10,.cls-3,.cls-4,.cls-6{stroke-miterlimit:10;}.cls-3,.cls-4{stroke-width:20px;}.cls-4{stroke:#2d2c2d;opacity:0.5;}.cls-10,.cls-4,.cls-6{stroke-linecap:round;}.cls-4,.cls-7{mix-blend-mode:multiply;}.cls-5{fill:#66a182;}.cls-10,.cls-6{stroke:#fff;}.cls-6{stroke-width:9px;}.cls-7{opacity:0.12;}.cls-8{fill:#3d4742;}.cls-9{clip-path:url(#clip-path);}.cls-10{stroke-width:10px;}.cls-11{clip-path:url(#clip-path-2);}.cls-12{fill:#231f20;}.cls-13{clip-path:url(#clip-path-3);}</style><clipPath id="clip-path"><circle class="cls-1" cx="98.54" cy="89.46" r="38.46" transform="translate(-4.31 5) rotate(-2.84)"/></clipPath><clipPath id="clip-path-2"><circle class="cls-1" cx="253.5" cy="89.46" r="38.46" transform="translate(43.91 257.81) rotate(-58.21)"/></clipPath><clipPath id="clip-path-3"><circle class="cls-1" cx="409.09" cy="89.46" r="38.46" transform="translate(7.5 208.14) rotate(-28.8)"/></clipPath></defs><title>atomisound_icons</title><g class="cls-2"><g id="Layer_1" data-name="Layer 1"><rect class="cls-3" x="15" y="15" width="477" height="477" rx="15" ry="15"/><line class="cls-4" x1="97.91" y1="438" x2="97.91" y2="168"/><rect class="cls-5" x="59.45" y="285" width="76.92" height="112" rx="10" ry="10"/><line class="cls-6" x1="75.91" y1="321" x2="119.91" y2="321"/><line class="cls-6" x1="76.68" y1="343.5" x2="120.68" y2="343.5"/><line class="cls-6" x1="77.45" y1="366" x2="121.45" y2="366"/><g id="dial_3" data-name="dial 3"><g class="cls-7"><circle class="cls-8" cx="118.54" cy="109.46" r="38.46" transform="translate(-5.28 6.01) rotate(-2.84)"/><circle class="cls-8" cx="117.54" cy="108.46" r="38.46" transform="translate(-5.23 5.96) rotate(-2.84)"/><circle class="cls-8" cx="116.54" cy="107.46" r="38.46" transform="translate(-5.19 5.91) rotate(-2.84)"/><circle class="cls-8" cx="115.54" cy="106.46" r="38.46" transform="translate(-5.14 5.86) rotate(-2.84)"/><circle class="cls-8" cx="114.54" cy="105.46" r="38.46" transform="translate(-5.09 5.81) rotate(-2.84)"/><circle class="cls-8" cx="113.54" cy="104.46" r="38.46" transform="translate(-5.04 5.76) rotate(-2.84)"/><circle class="cls-8" cx="112.54" cy="103.46" r="38.46" transform="translate(-4.99 5.71) rotate(-2.84)"/><circle class="cls-8" cx="111.54" cy="102.46" r="38.46" transform="translate(-4.94 5.66) rotate(-2.84)"/><circle class="cls-8" cx="110.54" cy="101.46" r="38.46" transform="translate(-4.89 5.61) rotate(-2.84)"/><circle class="cls-8" cx="109.54" cy="100.46" r="38.46" transform="translate(-4.85 5.56) rotate(-2.84)"/><circle class="cls-8" cx="108.54" cy="99.46" r="38.46" transform="translate(-4.8 5.5) rotate(-2.84)"/><circle class="cls-8" cx="107.54" cy="98.46" r="38.46" transform="translate(-4.75 5.45) rotate(-2.84)"/><circle class="cls-8" cx="106.54" cy="97.46" r="38.46" transform="translate(-4.7 5.4) rotate(-2.84)"/><circle class="cls-8" cx="105.54" cy="96.46" r="38.46" transform="translate(-4.65 5.35) rotate(-2.84)"/><circle class="cls-8" cx="104.54" cy="95.46" r="38.46" transform="translate(-4.6 5.3) rotate(-2.84)"/><circle class="cls-8" cx="103.54" cy="94.46" r="38.46" transform="translate(-4.56 5.25) rotate(-2.84)"/><circle class="cls-8" cx="102.54" cy="93.46" r="38.46" transform="translate(-4.51 5.2) rotate(-2.84)"/><circle class="cls-8" cx="101.54" cy="92.46" r="38.46" transform="translate(-4.46 5.15) rotate(-2.84)"/><circle class="cls-8" cx="100.54" cy="91.46" r="38.46" transform="translate(-4.41 5.1) rotate(-2.84)"/><circle class="cls-8" cx="99.54" cy="90.46" r="38.46" transform="translate(-4.36 5.05) rotate(-2.84)"/><circle class="cls-8" cx="98.54" cy="89.46" r="38.46" transform="translate(-4.31 5) rotate(-2.84)"/></g><circle class="cls-5" cx="98.54" cy="89.46" r="38.46" transform="translate(-4.31 5) rotate(-2.84)"/><g class="cls-9"><line class="cls-10" x1="98.26" y1="53.47" x2="98.4" y2="71.46"/></g></g><line class="cls-4" x1="253.5" y1="438" x2="253.5" y2="168"/><rect class="cls-5" x="215.04" y="218" width="76.92" height="112" rx="10" ry="10"/><line class="cls-6" x1="231.5" y1="254" x2="275.5" y2="254"/><line class="cls-6" x1="232.27" y1="276.5" x2="276.27" y2="276.5"/><line class="cls-6" x1="233.04" y1="299" x2="277.04" y2="299"/><g id="dial_3-2" data-name="dial 3"><g class="cls-7"><circle class="cls-8" cx="273.5" cy="109.46" r="38.46" transform="translate(36.38 284.27) rotate(-58.21)"/><circle class="cls-8" cx="272.5" cy="108.46" r="38.46" transform="translate(36.75 282.95) rotate(-58.21)"/><circle class="cls-8" cx="271.5" cy="107.46" r="38.46" transform="translate(37.13 281.62) rotate(-58.21)"/><circle class="cls-8" cx="270.5" cy="106.46" r="38.46" transform="translate(37.51 280.3) rotate(-58.21)"/><circle class="cls-8" cx="269.5" cy="105.46" r="38.46" transform="translate(37.88 278.98) rotate(-58.21)"/><circle class="cls-8" cx="268.5" cy="104.46" r="38.46" transform="translate(38.26 277.65) rotate(-58.21)"/><circle class="cls-8" cx="267.5" cy="103.46" r="38.46" transform="translate(38.64 276.33) rotate(-58.21)"/><circle class="cls-8" cx="266.5" cy="102.46" r="38.46" transform="translate(39.02 275.01) rotate(-58.21)"/><circle class="cls-8" cx="265.5" cy="101.46" r="38.46" transform="translate(39.39 273.69) rotate(-58.21)"/><circle class="cls-8" cx="264.5" cy="100.46" r="38.46" transform="translate(39.77 272.36) rotate(-58.21)"/><circle class="cls-8" cx="263.5" cy="99.46" r="38.46" transform="translate(40.15 271.04) rotate(-58.21)"/><circle class="cls-8" cx="262.5" cy="98.46" r="38.46" transform="translate(40.52 269.72) rotate(-58.21)"/><circle class="cls-8" cx="261.5" cy="97.46" r="38.46" transform="translate(40.9 268.39) rotate(-58.21)"/><circle class="cls-8" cx="260.5" cy="96.46" r="38.46" transform="translate(41.28 267.07) rotate(-58.21)"/><circle class="cls-8" cx="259.5" cy="95.46" r="38.46" transform="translate(41.65 265.75) rotate(-58.21)"/><circle class="cls-8" cx="258.5" cy="94.46" r="38.46" transform="translate(42.03 264.42) rotate(-58.21)"/><circle class="cls-8" cx="257.5" cy="93.46" r="38.46" transform="translate(42.41 263.1) rotate(-58.21)"/><circle class="cls-8" cx="256.5" cy="92.46" r="38.46" transform="translate(42.78 261.78) rotate(-58.21)"/><circle class="cls-8" cx="255.5" cy="91.46" r="38.46" transform="translate(43.16 260.45) rotate(-58.21)"/><circle class="cls-8" cx="254.5" cy="90.46" r="38.46" transform="translate(43.54 259.13) rotate(-58.21)"/><circle class="cls-8" cx="253.5" cy="89.46" r="38.46" transform="translate(43.91 257.81) rotate(-58.21)"/></g><circle class="cls-5" cx="253.5" cy="89.46" r="38.46" transform="translate(43.91 257.81) rotate(-58.21)"/><g class="cls-11"><line class="cls-10" x1="231.37" y1="61.07" x2="242.43" y2="75.27"/></g></g><rect class="cls-12" x="370.62" y="254" width="76.92" height="112" rx="10" ry="10"/><g id="dial_3-3" data-name="dial 3"><g class="cls-7"><circle class="cls-8" cx="429.09" cy="109.46" r="38.46" transform="translate(0.34 220.25) rotate(-28.8)"/><circle class="cls-8" cx="428.09" cy="108.46" r="38.46" transform="translate(0.7 219.64) rotate(-28.8)"/><circle class="cls-8" cx="427.09" cy="107.46" r="38.46" transform="translate(1.06 219.04) rotate(-28.8)"/><circle class="cls-8" cx="426.09" cy="106.46" r="38.46" transform="translate(1.41 218.43) rotate(-28.8)"/><circle class="cls-8" cx="425.09" cy="105.46" r="38.46" transform="translate(1.77 217.83) rotate(-28.8)"/><circle class="cls-8" cx="424.09" cy="104.46" r="38.46" transform="translate(2.13 217.22) rotate(-28.8)"/><circle class="cls-8" cx="423.09" cy="103.46" r="38.46" transform="translate(2.49 216.62) rotate(-28.8)"/><circle class="cls-8" cx="422.09" cy="102.46" r="38.46" transform="translate(2.85 216.01) rotate(-28.8)"/><circle class="cls-8" cx="421.09" cy="101.46" r="38.46" transform="translate(3.2 215.41) rotate(-28.8)"/><circle class="cls-8" cx="420.09" cy="100.46" r="38.46" transform="translate(3.56 214.8) rotate(-28.8)"/><circle class="cls-8" cx="419.09" cy="99.46" r="38.46" transform="translate(3.92 214.2) rotate(-28.8)"/><circle class="cls-8" cx="418.09" cy="98.46" r="38.46" transform="translate(4.28 213.59) rotate(-28.8)"/><circle class="cls-8" cx="417.09" cy="97.46" r="38.46" transform="translate(4.64 212.98) rotate(-28.8)"/><circle class="cls-8" cx="416.09" cy="96.46" r="38.46" transform="translate(4.99 212.38) rotate(-28.8)"/><circle class="cls-8" cx="415.09" cy="95.46" r="38.46" transform="translate(5.35 211.77) rotate(-28.8)"/><circle class="cls-8" cx="414.09" cy="94.46" r="38.46" transform="translate(5.71 211.17) rotate(-28.8)"/><circle class="cls-8" cx="413.09" cy="93.46" r="38.46" transform="translate(6.07 210.56) rotate(-28.8)"/><circle class="cls-8" cx="412.09" cy="92.46" r="38.46" transform="translate(6.43 209.96) rotate(-28.8)"/><circle class="cls-8" cx="411.09" cy="91.46" r="38.46" transform="translate(6.78 209.35) rotate(-28.8)"/><circle class="cls-8" cx="410.09" cy="90.46" r="38.46" transform="translate(7.14 208.75) rotate(-28.8)"/><circle class="cls-8" cx="409.09" cy="89.46" r="38.46" transform="translate(7.5 208.14) rotate(-28.8)"/></g><circle class="cls-5" cx="409.09" cy="89.46" r="38.46" transform="translate(7.5 208.14) rotate(-28.8)"/><g class="cls-13"><line class="cls-10" x1="430.13" y1="60.25" x2="419.61" y2="74.86"/></g></g><line class="cls-4" x1="409.09" y1="438" x2="409.09" y2="168"/><rect class="cls-5" x="370.62" y="254" width="76.92" height="112" rx="10" ry="10"/><line class="cls-6" x1="387.09" y1="290" x2="431.09" y2="290"/><line class="cls-6" x1="387.86" y1="312.5" x2="431.86" y2="312.5"/><line class="cls-6" x1="388.62" y1="335" x2="432.62" y2="335"/></g></g></svg>