<svg xmlns="http://www.w3.org/2000/svg" xmlns:xlink="http://www.w3.org/1999/xlink" viewBox="0 0 507 507"><defs><style>.cls-1,.cls-13,.cls-7,.cls-8{fill:none;}.cls-2{isolation:isolate;}.cls-3,.cls-9{fill:#f1e4b2;}.cls-4{clip-path:url(#clip-path);}.cls-5{opacity:0.1;}.cls-10,.cls-5,.cls-8{mix-blend-mode:multiply;}.cls-6{fill:#3d4742;}.cls-7{stroke:#f1e4b2;}.cls-13,.cls-7,.cls-8,.cls-9{stroke-linecap:round;stroke-miterlimit:10;}.cls-7,.cls-8,.cls-9{stroke-width:20px;}.cls-8{stroke:#2d2c2d;opacity:0.5;}.cls-9{stroke:#66a182;}.cls-10,.cls-11{fill:#2d2c2d;opacity:0.3;}.cls-12{fill:#66a182;}.cls-13{stroke:#fff;stroke-width:10px;}</style><clipPath id="clip-path"><rect class="cls-1" x="10" y="10" width="487" height="487" rx="15" ry="15"/></clipPath></defs><title>atomisound_icons</title><g class="cls-2"><g id="Layer_1" data-name="Layer 1"><rect class="cls-3" x="10" y="10" width="487" height="487" rx="15" ry="15"/><g class="cls-4"><g class="cls-5"><rect class="cls-6" x="351.52" y="232.5" width="163.96" height="299.92" rx="81.55" ry="81.55"/><rect class="cls-6" x="350.52" y="231.5" width="163.96" height="299.92" rx="81.55" ry="81.55"/><rect class="cls-6" x="349.52" y="230.5" width="163.96" height="299.92" rx="81.55" ry="81.55"/><rect class="cls-6" x="348.52" y="229.5" width="163.96" height="299.92" rx="81.55" ry="81.55"/><rect class="cls-6" x="347.52" y="228.5" width="163.96" height="299.92" rx="81.55" ry="81.55"/><rect class="cls-6" x="346.52" y="227.5" width="163.96" height="299.92" rx="81.55" ry="81.55"/><rect class="cls-6" x="345.52" y="226.5" width="163.96" height="299.92" rx="81.55" ry="81.55"/><rect class="cls-6" x="344.52" y="225.5" width="163.96" height="299.92" rx="81.55" ry="81.55"/><rect class="cls-6" x="343.52" y="224.5" width="163.96" height="299.92" rx="81.55" ry="81.55"/><rect class="cls-6" x="342.52" y="223.5" width="163.96" height="299.92" rx="81.55" ry="81.55"/><rect class="cls-6" x="341.52" y="222.5" width="163.96" height="299.92" rx="81.55" ry="81.55"/><rect class="cls-6" x="340.52" y="221.5" width="163.96" height="299.92" rx="81.55" ry="81.55"/><rect class="cls-6" x="339.52" y="220.5" width="163.96" height="299.92" rx="81.55" ry="81.55"/><rect class="cls-6" x="338.52" y="219.5" width="163.96" height="299.92" rx="81.55" ry="81.55"/><rect class="cls-6" x="337.52" y="218.5" width="163.96" height="299.92" rx="81.55" ry="81.55"/><rect class="cls-6" x="336.52" y="217.5" width="163.96" height="299.92" rx="81.55" ry="81.55"/><rect class="cls-6" x="335.52" y="216.5" width="163.96" height="299.92" rx="81.55" ry="81.55"/><rect class="cls-6" x="334.52" y="215.5" width="163.96" height="299.92" rx="81.55" ry="81.55"/><rect class="cls-6" x="333.52" y="214.5" width="163.96" height="299.92" rx="81.55" ry="81.55"/><rect class="cls-6" x="332.52" y="213.5" width="163.96" height="299.92" rx="81.55" ry="81.55"/><rect class="cls-6" x="331.52" y="212.5" width="163.96" height="299.92" rx="81.55" ry="81.55"/><rect class="cls-6" x="330.52" y="211.5" width="163.96" height="299.92" rx="81.55" ry="81.55"/><rect class="cls-6" x="329.52" y="210.5" width="163.96" height="299.92" rx="81.55" ry="81.55"/><rect class="cls-6" x="328.52" y="209.5" width="163.96" height="299.92" rx="81.55" ry="81.55"/><rect class="cls-6" x="327.52" y="208.5" width="163.96" height="299.92" rx="81.55" ry="81.55"/><rect class="cls-6" x="326.52" y="207.5" width="163.96" height="299.92" rx="81.55" ry="81.55"/><rect class="cls-6" x="325.52" y="206.5" width="163.96" height="299.92" rx="81.55" ry="81.55"/><rect class="cls-6" x="324.52" y="205.5" width="163.96" height="299.92" rx="81.55" ry="81.55"/><rect class="cls-6" x="323.52" y="204.5" width="163.96" height="299.92" rx="81.55" ry="81.55"/><rect class="cls-6" x="322.52" y="203.5" width="163.96" height="299.92" rx="81.55" ry="81.55"/><rect class="cls-6" x="321.52" y="202.5" width="163.96" height="299.92" rx="81.55" ry="81.55"/><rect class="cls-6" x="320.52" y="201.5" width="163.96" height="299.92" rx="81.55" ry="81.55"/><rect class="cls-6" x="319.52" y="200.5" width="163.96" height="299.92" rx="81.55" ry="81.55"/><rect class="cls-6" x="318.52" y="199.5" width="163.96" height="299.92" rx="81.55" ry="81.55"/><rect class="cls-6" x="317.52" y="198.5" width="163.96" height="299.92" rx="81.55" ry="81.55"/><rect class="cls-6" x="316.52" y="197.5" width="163.96" height="299.92" rx="81.55" ry="81.55"/><rect class="cls-6" x="315.52" y="196.5" width="163.96" height="299.92" rx="81.55" ry="81.55"/><rect class="cls-6" x="314.52" y="195.5" width="163.96" height="299.92" rx="81.55" ry="81.55"/><rect class="cls-6" x="313.52" y="194.5" width="163.96" height="299.92" rx="81.55" ry="81.55"/><rect class="cls-6" x="312.52" y="193.5" width="163.96" height="299.92" rx="81.55" ry="81.55"/><rect class="cls-6" x="311.52" y="192.5" width="163.96" height="299.92" rx="81.55" ry="81.55"/><rect class="cls-6" x="310.52" y="191.5" width="163.96" height="299.92" rx="81.55" ry="81.55"/><rect class="cls-6" x="309.52" y="190.5" width="163.96" height="299.92" rx="81.55" ry="81.55"/><rect class="cls-6" x="308.52" y="189.5" width="163.96" height="299.92" rx="81.55" ry="81.55"/><rect class="cls-6" x="307.52" y="188.5" width="163.96" height="299.92" rx="81.55" ry="81.55"/><rect class="cls-6" x="306.52" y="187.5" width="163.96" height="299.92" rx="81.55" ry="81.55"/><rect class="cls-6" x="305.52" y="186.5" width="163.96" height="299.92" rx="81.55" ry="81.55"/><rect class="cls-6" x="304.52" y="185.5" width="163.96" height="299.92" rx="81.55" ry="81.55"/><rect class="cls-6" x="303.52" y="184.5" width="163.96" height="299.92" rx="81.55" ry="81.55"/><rect class="cls-6" x="302.52" y="183.5" width="163.96" height="299.92" rx="81.55" ry="81.55"/><rect class="cls-6" x="301.52" y="182.5" width="163.96" height="299.92" rx="81.55" ry="81.55"/><rect class="cls-6" x="300.52" y="181.5" width="163.96" height="299.92" rx="81.55" ry="81.55"/><rect class="cls-6" x="299.52" y="180.5" width="163.96" height="299.92" rx="81.55" ry="81.55"/><rect class="cls-6" x="298.52" y="179.5" width="163.96" height="299.92" rx="81.55" ry="81.55"/><rect class="cls-6" x="297.52" y="178.5" width="163.96" height="299.92" rx="81.55" ry="81.55"/><rect class="cls-6" x="296.52" y="177.5" width="163.96" height="299.92" rx="81.55" ry="81.55"/><rect class="cls-6" x="295.52" y="176.5" width="163.96" height="299.92" rx="81.55" ry="81.55"/><rect class="cls-6" x="294.52" y="175.5" width="163.96" height="299.92" rx="81.55" ry="81.55"/><rect class="cls-6" x="293.52" y="174.5" width="163.96" height="299.92" rx="81.55" ry="81.55"/><rect class="cls-6" x="292.52" y="173.5" width="163.96" height="299.92" rx="81.55" ry="81.55"/><rect class="cls-6" x="291.52" y="172.5" width="163.96" height="299.92" rx="81.55" ry="81.55"/><rect class="cls-6" x="290.52" y="171.5" width="163.96" height="299.92" rx="81.55" ry="81.55"/><rect class="cls-6" x="289.52" y="170.5" width="163.96" height="299.92" rx="81.55" ry="81.55"/><rect class="cls-6" x="288.52" y="169.5" width="163.96" height="299.92" rx="81.55" ry="81.55"/><rect class="cls-6" x="287.52" y="168.5" width="163.96" height="299.92" rx="81.55" ry="81.55"/><rect class="cls-6" x="286.52" y="167.5" width="163.96" height="299.92" rx="81.55" ry="81.55"/><rect class="cls-6" x="285.52" y="166.5" width="163.96" height="299.92" rx="81.55" ry="81.55"/><rect class="cls-6" x="284.52" y="165.5" width="163.96" height="299.92" rx="81.55" ry="81.55"/><rect class="cls-6" x="283.52" y="164.5" width="163.96" height="299.92" rx="81.55" ry="81.55"/><rect class="cls-6" x="282.52" y="163.5" width="163.96" height="299.92" rx="81.55" ry="81.55"/><rect class="cls-6" x="281.52" y="162.5" width="163.96" height="299.92" rx="81.55" ry="81.55"/><rect class="cls-6" x="280.52" y="161.5" width="163.96" height="299.92" rx="81.55" ry="81.55"/><rect class="cls-6" x="279.52" y="160.5" width="163.96" height="299.92" rx="81.55" ry="81.55"/><rect class="cls-6" x="278.52" y="159.5" width="163.96" height="299.92" rx="81.55" ry="81.55"/><rect class="cls-6" x="277.52" y="158.5" width="163.96" height="299.92" rx="81.55" ry="81.55"/><rect class="cls-6" x="276.52" y="157.5" width="163.96" height="299.92" rx="81.55" ry="81.55"/><rect class="cls-6" x="275.52" y="156.5" width="163.96" height="299.92" rx="81.55" ry="81.55"/><rect class="cls-6" x="274.52" y="155.5" width="163.96" height="299.92" rx="81.55" ry="81.55"/><rect class="cls-6" x="273.52" y="154.5" width="163.96" height="299.92" rx="81.55" ry="81.55"/><rect class="cls-6" x="272.52" y="153.5" width="163.96" height="299.92" rx="81.55" ry="81.55"/><rect class="cls-6" x="271.52" y="152.5" width="163.96" height="299.92" rx="81.55" ry="81.55"/><rect class="cls-6" x="270.52" y="151.5" width="163.96" height="299.92" rx="81.55" ry="81.55"/><rect class="cls-6" x="269.52" y="150.5" width="163.96" height="299.92" rx="81.55" ry="81.55"/><rect class="cls-6" x="268.52" y="149.5" width="163.96" height="299.92" rx="81.55" ry="81.55"/><rect class="cls-6" x="267.52" y="148.5" width="163.96" height="299.92" rx="81.55" ry="81.55"/><rect class="cls-6" x="266.52" y="147.5" width="163.96" height="299.92" rx="81.55" ry="81.55"/><rect class="cls-6" x="265.52" y="146.5" width="163.96" height="299.92" rx="81.55" ry="81.55"/><rect class="cls-6" x="264.52" y="145.5" width="163.96" height="299.92" rx="81.55" ry="81.55"/><rect class="cls-6" x="263.52" y="144.5" width="163.96" height="299.92" rx="81.55" ry="81.55"/><rect class="cls-6" x="262.52" y="143.5" width="163.96" height="299.92" rx="81.55" ry="81.55"/><rect class="cls-6" x="261.52" y="142.5" width="163.96" height="299.92" rx="81.55" ry="81.55"/><rect class="cls-6" x="260.52" y="141.5" width="163.96" height="299.92" rx="81.55" ry="81.55"/><rect class="cls-6" x="259.52" y="140.5" width="163.96" height="299.92" rx="81.55" ry="81.55"/><rect class="cls-6" x="258.52" y="139.5" width="163.96" height="299.92" rx="81.55" ry="81.55"/><rect class="cls-6" x="257.52" y="138.5" width="163.96" height="299.92" rx="81.55" ry="81.55"/><rect class="cls-6" x="256.52" y="137.5" width="163.96" height="299.92" rx="81.55" ry="81.55"/><rect class="cls-6" x="255.52" y="136.5" width="163.96" height="299.92" rx="81.55" ry="81.55"/><rect class="cls-6" x="254.52" y="135.5" width="163.96" height="299.92" rx="81.55" ry="81.55"/><rect class="cls-6" x="253.52" y="134.5" width="163.96" height="299.92" rx="81.55" ry="81.55"/><rect class="cls-6" x="252.52" y="133.5" width="163.96" height="299.92" rx="81.55" ry="81.55"/><rect class="cls-6" x="251.52" y="132.5" width="163.96" height="299.92" rx="81.55" ry="81.55"/><rect class="cls-6" x="250.52" y="131.5" width="163.96" height="299.92" rx="81.55" ry="81.55"/><rect class="cls-6" x="249.52" y="130.5" width="163.96" height="299.92" rx="81.55" ry="81.55"/><rect class="cls-6" x="248.52" y="129.5" width="163.96" height="299.92" rx="81.55" ry="81.55"/><rect class="cls-6" x="247.52" y="128.5" width="163.96" height="299.92" rx="81.55" ry="81.55"/><rect class="cls-6" x="246.52" y="127.5" width="163.96" height="299.92" rx="81.55" ry="81.55"/><rect class="cls-6" x="245.52" y="126.5" width="163.96" height="299.92" rx="81.55" ry="81.55"/><rect class="cls-6" x="244.52" y="125.5" width="163.96" height="299.92" rx="81.55" ry="81.55"/><rect class="cls-6" x="243.52" y="124.5" width="163.96" height="299.92" rx="81.55" ry="81.55"/><rect class="cls-6" x="242.52" y="123.5" width="163.96" height="299.92" rx="81.55" ry="81.55"/><rect class="cls-6" x="241.52" y="122.5" width="163.96" height="299.92" rx="81.55" ry="81.55"/><rect class="cls-6" x="240.52" y="121.5" width="163.96" height="299.92" rx="81.55" ry="81.55"/><rect class="cls-6" x="239.52" y="120.5" width="163.96" height="299.92" rx="81.55" ry="81.55"/><rect class="cls-6" x="238.52" y="119.5" width="163.96" height="299.92" rx="81.55" ry="81.55"/><rect class="cls-6" x="237.52" y="118.5" width="163.96" height="299.92" rx="81.55" ry="81.55"/><rect class="cls-6" x="236.52" y="117.5" width="163.96" height="299.92" rx="81.55" ry="81.55"/><rect class="cls-6" x="235.52" y="116.5" width="163.96" height="299.92" rx="81.55" ry="81.55"/><rect class="cls-6" x="234.52" y="115.5" width="163.96" height="299.92" rx="81.55" ry="81.55"/><rect class="cls-6" x="233.52" y="114.5" width="163.96" height="299.92" rx="81.55" ry="81.55"/><rect class="cls-6" x="232.52" y="113.5" width="163.96" height="299.92" rx="81.55" ry="81.55"/><rect class="cls-6" x="231.52" y="112.5" width="163.96" height="299.92" rx="81.55" ry="81.55"/><rect class="cls-6" x="230.52" y="111.5" width="163.96" height="299.92" rx="81.55" ry="81.55"/><rect class="cls-6" x="229.52" y="110.5" width="163.96" height="299.92" rx="81.55" ry="81.55"/><rect class="cls-6" x="228.52" y="109.5" width="163.96" height="299.92" rx="81.55" ry="81.55"/><rect class="cls-6" x="227.52" y="108.5" width="163.96" height="299.92" rx="81.55" ry="81.55"/><rect class="cls-6" x="226.52" y="107.5" width="163.96" height="299.92" rx="81.55" ry="81.55"/><rect class="cls-6" x="225.52" y="106.5" width="163.96" height="299.92" rx="81.55" ry="81.55"/><rect class="cls-6" x="224.52" y="105.5" width="163.96" height="299.92" rx="81.55" ry="81.55"/><rect class="cls-6" x="223.52" y="104.5" width="163.96" height="299.92" rx="81.55" ry="81.55"/><rect class="cls-6" x="222.52" y="103.5" width="163.96" height="299.92" rx="81.55" ry="81.55"/><rect class="cls-6" x="221.52" y="102.5" width="163.96" height="299.92" rx="81.55" ry="81.55"/><rect class="cls-6" x="220.52" y="101.5" width="163.96" height="299.92" rx="81.55" ry="81.55"/><rect class="cls-6" x="219.52" y="100.5" width="163.96" height="299.92" rx="81.55" ry="81.55"/><rect class="cls-6" x="218.52" y="99.5" width="163.96" height="299.92" rx="81.55" ry="81.55"/><rect class="cls-6" x="217.52" y="98.5" width="163.96" height="299.92" rx="81.55" ry="81.55"/><rect class="cls-6" x="216.52" y="97.5" width="163.96" height="299.92" rx="81.55" ry="81.55"/><rect class="cls-6" x="215.52" y="96.5" width="163.96" height="299.92" rx="81.55" ry="81.55"/><rect class="cls-6" x="214.52" y="95.5" width="163.96" height="299.92" rx="81.55" ry="81.55"/><rect class="cls-6" x="213.52" y="94.5" width="163.96" height="299.92" rx="81.55" ry="81.55"/><rect class="cls-6" x="212.52" y="93.5" width="163.96" height="299.92" rx="81.55" ry="81.55"/><rect class="cls-6" x="211.52" y="92.5" width="163.96" height="299.92" rx="81.55" ry="81.55"/><rect class="cls-6" x="210.52" y="91.5" width="163.96" height="299.92" rx="81.55" ry="81.55"/><rect class="cls-6" x="209.52" y="90.5" width="163.96" height="299.92" rx="81.55" ry="81.55"/><rect class="cls-6" x="208.52" y="89.5" width="163.96" height="299.92" rx="81.55" ry="81.55"/><rect class="cls-6" x="207.52" y="88.5" width="163.96" height="299.92" rx="81.55" ry="81.55"/><rect class="cls-6" x="206.52" y="87.5" width="163.96" height="299.92" rx="81.55" ry="81.55"/><rect class="cls-6" x="205.52" y="86.5" width="163.96" height="299.92" rx="81.55" ry="81.55"/><rect class="cls-6" x="204.52" y="85.5" width="163.96" height="299.92" rx="81.55" ry="81.55"/><rect class="cls-6" x="203.52" y="84.5" width="163.96" height="299.92" rx="81.55" ry="81.55"/><rect class="cls-6" x="202.52" y="83.5" width="163.96" height="299.92" rx="81.55" ry="81.55"/><rect class="cls-6" x="201.52" y="82.5" width="163.96" height="299.92" rx="81.55" ry="81.55"/><rect class="cls-6" x="200.52" y="81.5" width="163.96" height="299.92" rx="81.55" ry="81.55"/><rect class="cls-6" x="199.52" y="80.5" width="163.96" height="299.92" rx="81.55" ry="81.55"/><rect class="cls-6" x="198.52" y="79.5" width="163.96" height="299.92" rx="81.55" ry="81.55"/><rect class="cls-6" x="197.52" y="78.5" width="163.96" height="299.92" rx="81.55" ry="81.55"/><rect class="cls-6" x="196.52" y="77.5" width="163.96" height="299.92" rx="81.55" ry="81.55"/><rect class="cls-6" x="195.52" y="76.5" width="163.96" height="299.92" rx="81.55" ry="81.55"/><rect class="cls-6" x="194.52" y="75.5" width="163.96" height="299.92" rx="81.55" ry="81.55"/><rect class="cls-6" x="193.52" y="74.5" width="163.96" height="299.92" rx="81.55" ry="81.55"/><rect class="cls-6" x="192.52" y="73.5" width="163.96" height="299.92" rx="81.55" ry="81.55"/><rect class="cls-6" x="191.52" y="72.5" width="163.96" height="299.92" rx="81.55" ry="81.55"/><rect class="cls-6" x="190.52" y="71.5" width="163.96" height="299.92" rx="81.55" ry="81.55"/><rect class="cls-6" x="189.52" y="70.5" width="163.96" height="299.92" rx="81.55" ry="81.55"/><rect class="cls-6" x="188.52" y="69.5" width="163.96" height="299.92" rx="81.55" ry="81.55"/><rect class="cls-6" x="187.52" y="68.5" width="163.96" height="299.92" rx="81.55" ry="81.55"/><rect class="cls-6" x="186.52" y="67.5" width="163.96" height="299.92" rx="81.55" ry="81.55"/><rect class="cls-6" x="185.52" y="66.5" width="163.96" height="299.92" rx="81.55" ry="81.55"/><rect class="cls-6" x="184.52" y="65.5" width="163.96" height="299.92" rx="81.55" ry="81.55"/><rect class="cls-6" x="183.52" y="64.5" width="163.96" height="299.92" rx="81.55" ry="81.55"/><rect class="cls-6" x="182.52" y="63.5" width="163.96" height="299.92" rx="81.55" ry="81.55"/><rect class="cls-6" x="181.52" y="62.5" width="163.96" height="299.92" rx="81.55" ry="81.55"/><rect class="cls-6" x="180.52" y="61.5" width="163.96" height="299.92" rx="81.55" ry="81.55"/><rect class="cls-6" x="179.52" y="60.5" width="163.96" height="299.92" rx="81.55" ry="81.55"/><rect class="cls-6" x="178.52" y="59.5" width="163.96" height="299.92" rx="81.55" ry="81.55"/><rect class="cls-6" x="177.52" y="58.5" width="163.96" height="299.92" rx="81.55" ry="81.55"/><rect class="cls-6" x="176.52" y="57.5" width="163.96" height="299.92" rx="81.55" ry="81.55"/><rect class="cls-6" x="175.52" y="56.5" width="163.96" height="299.92" rx="81.55" ry="81.55"/><rect class="cls-6" x="174.52" y="55.5" width="163.96" height="299.92" rx="81.55" ry="81.55"/><rect class="cls-6" x="173.52" y="54.5" width="163.96" height="299.92" rx="81.55" ry="81.55"/><rect class="cls-6" x="172.52" y="53.5" width="163.96" height="299.92" rx="81.55" ry="81.55"/><rect class="cls-6" x="171.52" y="52.5" width="163.96" height="299.92" rx="81.55" ry="81.55"/></g></g><path class="cls-7" d="M150,297A105.93,105.93,0,0,0,357,297"/><path class="cls-8" d="M150,297A105.93,105.93,0,0,0,357,297"/><line class="cls-7" x1="253.5" y1="439" x2="253.5" y2="385.93"/><line class="cls-8" x1="253.5" y1="439" x2="253.5" y2="385.93"/><rect class="cls-9" x="181.52" y="62.5" width="143.96" height="279.92" rx="71.55" ry="71.55"/><circle class="cls-3" cx="209.18" cy="230.37" r="9.26"/><circle class="cls-10" cx="209.18" cy="230.37" r="9.26"/><circle class="cls-3" cx="238.58" cy="230.37" r="9.26"/><circle class="cls-10" cx="238.58" cy="230.37" r="9.26"/><circle class="cls-3" cx="267.97" cy="230.37" r="9.26"/><circle class="cls-10" cx="267.97" cy="230.37" r="9.26"/><circle class="cls-3" cx="297.37" cy="230.37" r="9.26"/><circle class="cls-10" cx="297.37" cy="230.37" r="9.26"/><circle class="cls-3" cx="209.18" cy="202.46" r="9.26"/><circle class="cls-11" cx="209.18" cy="202.46" r="9.26"/><circle class="cls-3" cx="238.58" cy="202.46" r="9.26"/><circle class="cls-11" cx="238.58" cy="202.46" r="9.26"/><circle class="cls-3" cx="267.97" cy="202.46" r="9.26"/><circle class="cls-11" cx="267.97" cy="202.46" r="9.26"/><circle class="cls-3" cx="297.37" cy="202.46" r="9.26"/><circle class="cls-11" cx="297.37" cy="202.46" r="9.26"/><circle class="cls-3" cx="209.18" cy="174.55" r="9.26"/><circle class="cls-11" cx="209.18" cy="174.55" r="9.26"/><circle class="cls-3" cx="238.58" cy="174.55" r="9.26"/><circle class="cls-11" cx="238.58" cy="174.55" r="9.26"/><circle class="cls-3" cx="267.97" cy="174.55" r="9.26"/><circle class="cls-11" cx="267.97" cy="174.55" r="9.26"/><circle class="cls-3" cx="297.37" cy="174.55" r="9.26"/><circle class="cls-11" cx="297.37" cy="174.55" r="9.26"/><circle class="cls-3" cx="209.18" cy="146.64" r="9.26"/><circle class="cls-11" cx="209.18" cy="146.64" r="9.26"/><circle class="cls-3" cx="238.58" cy="146.64" r="9.26"/><circle class="cls-11" cx="238.58" cy="146.64" r="9.26"/><circle class="cls-3" cx="267.97" cy="146.64" r="9.26"/><circle class="cls-11" cx="267.97" cy="146.64" r="9.26"/><circle class="cls-3" cx="297.37" cy="146.64" r="9.26"/><circle class="cls-11" cx="297.37" cy="146.64" r="9.26"/><circle class="cls-3" cx="209.18" cy="119.69" r="9.26"/><circle class="cls-11" cx="209.18" cy="119.69" r="9.26"/><circle class="cls-3" cx="238.58" cy="119.69" r="9.26"/><circle class="cls-11" cx="238.58" cy="119.69" r="9.26"/><circle class="cls-3" cx="267.97" cy="119.69" r="9.26"/><circle class="cls-11" cx="267.97" cy="119.69" r="9.26"/><circle class="cls-3" cx="297.37" cy="119.69" r="9.26"/><circle class="cls-11" cx="297.37" cy="119.69" r="9.26"/><circle class="cls-3" cx="238.58" cy="92.74" r="9.26"/><circle class="cls-11" cx="238.58" cy="92.74" r="9.26"/><circle class="cls-3" cx="267.97" cy="92.74" r="9.26"/><circle class="cls-11" cx="267.97" cy="92.74" r="9.26"/><path class="cls-3" d="M316.22,249.12h-144v21.32a81.24,81.24,0,1,0,162.48,0V249.12Z"/><path class="cls-12" d="M316.22,249.12h-144v21.32a81.24,81.24,0,1,0,162.48,0V249.12Z"/><path class="cls-13" d="M253.5,331.88a66.6,66.6,0,0,0,57.62-33.29"/><line class="cls-7" x1="175.01" y1="444.5" x2="331.99" y2="444.5"/><line class="cls-8" x1="175.01" y1="444.5" x2="331.99" y2="444.5"/></g></g></svg>