<svg id="Layer_1" data-name="Layer 1" xmlns="http://www.w3.org/2000/svg" xmlns:xlink="http://www.w3.org/1999/xlink" viewBox="0 0 507 507"><defs><style>.cls-1,.cls-2,.cls-3,.cls-4,.cls-7{fill:none;}.cls-2,.cls-3{stroke:#f1e4b2;}.cls-2,.cls-3,.cls-4,.cls-7{stroke-miterlimit:10;}.cls-2{stroke-width:10px;}.cls-3,.cls-4,.cls-7{stroke-linecap:round;}.cls-3,.cls-4{stroke-width:20px;}.cls-4{stroke:#2d2c2d;opacity:0.5;}.cls-5{fill:#66a182;}.cls-6{clip-path:url(#clip-path);}.cls-7{stroke:#fff;stroke-width:12px;}.cls-8{clip-path:url(#clip-path-2);}.cls-9{fill:#231f20;}.cls-10{clip-path:url(#clip-path-3);}</style><clipPath id="clip-path"><circle class="cls-1" cx="98.54" cy="89.46" r="38.46" transform="translate(-4.31 5) rotate(-2.84)"/></clipPath><clipPath id="clip-path-2"><circle class="cls-1" cx="253.5" cy="89.46" r="38.46" transform="translate(43.91 257.81) rotate(-58.21)"/></clipPath><clipPath id="clip-path-3"><circle class="cls-1" cx="409.09" cy="89.46" r="38.46" transform="translate(7.5 208.14) rotate(-28.8)"/></clipPath></defs><title>atomisound_icons</title><rect class="cls-2" x="15" y="15" width="477" height="477" rx="15" ry="15"/><line class="cls-3" x1="95.78" y1="438" x2="95.78" y2="168"/><line class="cls-4" x1="95.78" y1="438" x2="95.78" y2="168"/><rect class="cls-5" x="59.45" y="285" width="76.92" height="112" rx="10" ry="10"/><g id="dial_3" data-name="dial 3"><circle class="cls-5" cx="98.54" cy="89.46" r="38.46" transform="translate(-4.31 5) rotate(-2.84)"/><g class="cls-6"><line class="cls-7" x1="98.26" y1="53.47" x2="98.4" y2="71.46"/></g></g><line class="cls-3" x1="251.37" y1="438" x2="251.37" y2="168"/><line class="cls-4" x1="251.37" y1="438" x2="251.37" y2="168"/><rect class="cls-5" x="215.04" y="218" width="76.92" height="112" rx="10" ry="10"/><g id="dial_3-2" data-name="dial 3"><circle class="cls-5" cx="253.5" cy="89.46" r="38.46" transform="translate(43.91 257.81) rotate(-58.21)"/><g class="cls-8"><line class="cls-7" x1="231.37" y1="61.07" x2="242.43" y2="75.27"/></g></g><rect class="cls-9" x="370.62" y="254" width="76.92" height="112" rx="10" ry="10"/><g id="dial_3-3" data-name="dial 3"><circle class="cls-5" cx="409.09" cy="89.46" r="38.46" transform="translate(7.5 208.14) rotate(-28.8)"/><g class="cls-10"><line class="cls-7" x1="430.13" y1="60.25" x2="419.61" y2="74.86"/></g></g><line class="cls-3" x1="406.95" y1="438" x2="406.95" y2="168"/><line class="cls-4" x1="406.95" y1="438" x2="406.95" y2="168"/><rect class="cls-5" x="370.62" y="254" width="76.92" height="112" rx="10" ry="10"/></svg>