<?xml version="1.0" encoding="utf-8"?>
<!-- Generator: Adobe Illustrator 22.0.1, SVG Export Plug-In . SVG Version: 6.00 Build 0)  -->
<svg version="1.1" id="Layer_1" xmlns="http://www.w3.org/2000/svg" xmlns:xlink="http://www.w3.org/1999/xlink" x="0px" y="0px"
	 viewBox="0 0 79 80" style="enable-background:new 0 0 79 80;" xml:space="preserve">
<style type="text/css">
	.st0{fill:#040911;}
</style>
<title>Facebook</title>
<desc>Created with Sketch.</desc>
<g id="SOCIAL-ICONS-SKETCH" transform="translate(-270.000000, -827.000000)">
	<g id="CIRCLE-KO" transform="translate(140.000000, 827.000000)">
		<g id="Facebook" transform="translate(130.000000, 0.000000)">
			<path id="Facebook-Circle" class="st0" d="M39.5,79.6c-21.8,0-39.5-17.7-39.5-39.5c0-21.8,17.7-39.5,39.5-39.5S79,18.3,79,40.1
				C79,61.9,61.3,79.6,39.5,79.6L39.5,79.6z M39.5,3.6C19.4,3.6,3.1,20,3.1,40.1c0,20.1,16.4,36.5,36.5,36.5
				C59.6,76.6,76,60.2,76,40.1C76,20,59.6,3.6,39.5,3.6L39.5,3.6z"/>
			<path class="st0" d="M57.6,55.7c0,1.1-0.9,2-2,2h-9.4V43.5H51l0.7-5.5h-5.5v-3.5c0-1.6,0.4-2.7,2.7-2.7l2.9,0v-5
				c-0.5-0.1-2.2-0.2-4.3-0.2c-4.2,0-7.1,2.6-7.1,7.3V38h-4.8v5.5h4.8v14.2H22.9c-1.1,0-2-0.9-2-2V23.1c0-1.1,0.9-2,2-2h32.7
				c1.1,0,2,0.9,2,2V55.7"/>
		</g>
	</g>
</g>
</svg>
