<?xml version="1.0" encoding="utf-8"?>
<!-- Generator: Adobe Illustrator 22.0.1, SVG Export Plug-In . SVG Version: 6.00 Build 0)  -->
<svg version="1.1" id="Layer_1" xmlns="http://www.w3.org/2000/svg" xmlns:xlink="http://www.w3.org/1999/xlink" x="0px" y="0px"
	 viewBox="0 0 79 80" style="enable-background:new 0 0 79 80;" xml:space="preserve">
<style type="text/css">
	.st0{fill:#040911;}
</style>
<title>Instagram</title>
<desc>Created with Sketch.</desc>
<g id="SOCIAL-ICONS-SKETCH" transform="translate(-911.000000, -828.000000)">
	<g id="CIRCLE-KO" transform="translate(140.000000, 827.000000)">
		<g id="Instagram" transform="translate(771.000000, 1.000000)">
			<path id="Instagram-Circle" class="st0" d="M39.5,79.6c-21.8,0-39.5-17.7-39.5-39.5c0-21.8,17.7-39.5,39.5-39.5
				C61.3,0.6,79,18.3,79,40.1C79,61.9,61.3,79.6,39.5,79.6L39.5,79.6z M39.5,3.6C19.4,3.6,3.1,20,3.1,40.1
				c0,20.1,16.4,36.5,36.5,36.5C59.6,76.6,76,60.2,76,40.1C76,20,59.6,3.6,39.5,3.6L39.5,3.6z"/>
			<path class="st0" d="M54.5,21.7H26.5c-2.4,0-4.4,1.9-4.4,4.3v28c0,2.4,2,4.3,4.4,4.3h27.9c2.4,0,4.4-1.9,4.4-4.3V26
				C58.8,23.6,56.9,21.7,54.5,21.7L54.5,21.7z M48.5,27.4c0-0.6,0.5-1.1,1.1-1.1h3.4c0.6,0,1.1,0.5,1.1,1.1v3.4
				c0,0.6-0.5,1.1-1.1,1.1h-3.4c-0.6,0-1.1-0.5-1.1-1.1V27.4L48.5,27.4z M40.5,33c3.9,0,7.1,3.1,7.1,7c0,3.9-3.2,7-7.1,7
				c-3.9,0-7.1-3.1-7.1-7C33.5,36.2,36.6,33,40.5,33L40.5,33z M55.4,53.7c0,0.6-0.5,1.1-1.1,1.1H26.7c-0.6,0-1.1-0.5-1.1-1.1V36.6
				h4.6c-0.6,0.9-0.8,2.5-0.8,3.5c0,6.1,5,11.1,11.2,11.1c6.1,0,11.2-5,11.2-11.1c0-1-0.1-2.6-0.9-3.5h4.6V53.7L55.4,53.7z"/>
		</g>
	</g>
</g>
</svg>
