<svg id="Layer_1" data-name="Layer 1" xmlns="http://www.w3.org/2000/svg" viewBox="0 0 507 507"><defs><style>.cls-1{fill:none;stroke:#f1e4b2;stroke-miterlimit:10;stroke-width:10px;}.cls-2{fill:#f1e4b2;}.cls-3{fill:#2d2c2d;opacity:0.5;}.cls-4{fill:#66a182;}</style></defs><title>soundwave_select</title><rect class="cls-1" x="15" y="15" width="477" height="477" rx="15" ry="15"/><path class="cls-2" d="M359,263.22v69.84a10,10,0,0,1-20,0V263.22Z"/><path class="cls-3" d="M359,263.22v69.84a10,10,0,0,1-20,0V263.22Z"/><path class="cls-2" d="M390.7,263.22v45.09a10,10,0,0,1-20,0V263.22Z"/><path class="cls-3" d="M390.7,263.22v45.09a10,10,0,0,1-20,0V263.22Z"/><path class="cls-2" d="M327.33,263.22v61.59a10,10,0,0,1-20,0V263.22Z"/><path class="cls-3" d="M327.33,263.22v61.59a10,10,0,0,1-20,0V263.22Z"/><path class="cls-2" d="M454.07,263.22v12.07a10,10,0,0,1-20,0V263.22Z"/><path class="cls-3" d="M454.07,263.22v12.07a10,10,0,0,1-20,0V263.22Z"/><path class="cls-2" d="M295.64,263.22V374.33a10,10,0,1,1-20,0V263.22Z"/><path class="cls-3" d="M295.64,263.22V374.33a10,10,0,1,1-20,0V263.22Z"/><path class="cls-2" d="M422.39,263.22v12.07a10,10,0,1,1-20,0V263.22Z"/><path class="cls-3" d="M422.39,263.22v12.07a10,10,0,1,1-20,0V263.22Z"/><path class="cls-2" d="M104.61,263.22v53.34a10,10,0,0,1-20,0V263.22Z"/><path class="cls-3" d="M104.61,263.22v53.34a10,10,0,0,1-20,0V263.22Z"/><path class="cls-2" d="M136.3,263.22v94.6a10,10,0,0,1-20,0v-94.6Z"/><path class="cls-3" d="M136.3,263.22v94.6a10,10,0,0,1-20,0v-94.6Z"/><path class="cls-2" d="M72.93,263.22v12.07a10,10,0,0,1-20,0V263.22Z"/><path class="cls-3" d="M72.93,263.22v12.07a10,10,0,0,1-20,0V263.22Z"/><path class="cls-2" d="M168,263.22l.44,135.83a10,10,0,0,1-10,10h0a10,10,0,0,1-10-10L148,263.22Z"/><path class="cls-3" d="M168,263.22l.44,135.83a10,10,0,0,1-10,10h0a10,10,0,0,1-10-10L148,263.22Z"/><path class="cls-2" d="M200.14,263.22l.44,177.11a10,10,0,0,1-10,10h0a10,10,0,0,1-10-10l-.44-177.16Z"/><path class="cls-3" d="M200.14,263.22l.44,177.11a10,10,0,0,1-10,10h0a10,10,0,0,1-10-10l-.44-177.16Z"/><path class="cls-2" d="M232.27,263.22V390.83a10,10,0,0,1-20,0V263.22Z"/><path class="cls-3" d="M232.27,263.22V390.83a10,10,0,0,1-20,0V263.22Z"/><path class="cls-2" d="M264,263.22V407.34a10,10,0,1,1-20,0V263.22Z"/><path class="cls-3" d="M264,263.22V407.34a10,10,0,1,1-20,0V263.22Z"/><path class="cls-4" d="M359,264.54V194.69a10,10,0,0,0-20,0v69.85Z"/><path class="cls-4" d="M390.7,264.54V219.45a10,10,0,0,0-20,0v45.09Z"/><path class="cls-4" d="M327.33,264.54V203a10,10,0,0,0-20,0v61.59Z"/><path class="cls-4" d="M454.07,264.54V252.46a10,10,0,1,0-20,0v12.08Z"/><path class="cls-4" d="M295.64,264.54V153.43a10,10,0,0,0-20,0V264.54Z"/><path class="cls-4" d="M422.39,264.54V252.46a10,10,0,0,0-20,0v12.08Z"/><path class="cls-4" d="M104.61,264.54V211.2a10,10,0,0,0-20,0v53.34Z"/><path class="cls-4" d="M136.3,264.54v-94.6a10,10,0,0,0-20,0v94.6Z"/><path class="cls-4" d="M72.93,264.54V252.46a10,10,0,0,0-20,0v12.08Z"/><path class="cls-4" d="M168,264.54l.44-135.84a10,10,0,0,0-10-10h0a10,10,0,0,0-10,10L148,264.54Z"/><path class="cls-4" d="M200.14,264.54l.44-177.11a10,10,0,0,0-10-10h0a10,10,0,0,0-10,10l-.44,177.16Z"/><path class="cls-4" d="M232.27,264.54V136.92a10,10,0,0,0-20,0V264.54Z"/><path class="cls-4" d="M264,264.54V120.42a10,10,0,1,0-20,0V264.54Z"/></svg>